#N canvas 495 91 655 705 12;
#X obj 13 38 OSC;
#X obj 12 105 OSCroute /proximityLevel /lightLevel;
#X obj 12 146 unpack i i;
#X obj 153 143 unpack i i;
#X obj 87 340 osc~;
#X floatatom 87 173 5 0 0 0 - - -;
#X floatatom 228 174 5 0 0 0 - - -;
#X obj 12 69 dumpOSC 20000;
#X floatatom 87 315 5 0 0 0 - - -;
#X obj 87 285 * 400;
#X obj 156 466 dac~;
#X obj 228 337 osc~;
#X floatatom 228 309 5 0 0 0 - - -;
#X obj 228 281 * 100;
#X obj 153 389 *~;
#X obj 154 423 *~;
#X floatatom 223 402 5 0 0 0 - - -;
#X obj 87 199 t f b;
#X obj 87 253 line;
#X msg 122 226 1000;
#X obj 228 203 t f b;
#X obj 228 255 line;
#X msg 263 229 1000;
#X obj 350 245 vsl 15 128 0 1 0 0 empty empty empty 0 -8 0 8 -262144
-1 -1 1900 1;
#X text 343 220 Volume;
#X text 8 7 LegOSC: Simple theremin;
#X connect 1 0 2 0;
#X connect 1 1 3 0;
#X connect 2 1 5 0;
#X connect 3 1 6 0;
#X connect 4 0 14 0;
#X connect 5 0 17 0;
#X connect 6 0 20 0;
#X connect 7 0 1 0;
#X connect 8 0 4 0;
#X connect 9 0 8 0;
#X connect 11 0 14 1;
#X connect 12 0 11 0;
#X connect 13 0 12 0;
#X connect 14 0 15 0;
#X connect 15 0 10 0;
#X connect 15 0 10 1;
#X connect 16 0 15 1;
#X connect 17 0 18 0;
#X connect 17 1 19 0;
#X connect 18 0 9 0;
#X connect 19 0 18 1;
#X connect 20 0 21 0;
#X connect 20 1 22 0;
#X connect 21 0 13 0;
#X connect 22 0 21 1;
#X connect 23 0 16 0;
