#N canvas 443 397 720 502 10;
#X obj 189 176 symbol2list;
#X obj 240 65 makefilename %c;
#X msg 240 44 92;
#X obj 41 8 dumpOSC 12001;
#X obj 107 41 OSCroute /Diablu;
#X obj 115 72 OSCroute /Mailman;
#X obj 126 109 OSCroute /Receive;
#X obj 126 139 unpack s s s;
#X obj 477 7 cnv 15 220 70 empty empty empty 20 12 0 14 -195568 -66577
0;
#N canvas 0 22 462 312 gemwin 0;
#X obj 132 136 gemwin;
#X obj 67 89 outlet;
#X obj 67 10 inlet;
#X obj 67 41 route create;
#X msg 67 70 set destroy;
#X msg 182 68 set create;
#X msg 132 112 create \, 1;
#X msg 238 112 destroy;
#N canvas 87 154 247 179 Gem.init 0;
#X obj 118 46 loadbang;
#X msg 118 81 reset;
#X obj 118 113 outlet;
#X connect 0 0 1 0;
#X connect 1 0 2 0;
#X restore 289 80 pd Gem.init;
#X connect 2 0 3 0;
#X connect 3 0 4 0;
#X connect 3 0 6 0;
#X connect 3 1 5 0;
#X connect 3 1 7 0;
#X connect 4 0 1 0;
#X connect 5 0 1 0;
#X connect 6 0 0 0;
#X connect 7 0 0 0;
#X connect 8 0 0 0;
#X restore 482 51 pd gemwin;
#X msg 482 27 destroy;
#X text 481 7 Create window and render;
#X msg 207 243 open \$1;
#X obj 240 23 loadbang;
#X obj 208 213 list2symbol;
#X msg 349 42 /;
#X obj 349 69 symbol;
#X obj 332 236 gemhead;
#X obj 334 419 cube;
#X obj 336 344 translateXYZ;
#X obj 335 373 rotateXYZ;
#X obj 335 282 pix_image;
#X obj 336 311 pix_texture;
#X obj 486 292 int 0;
#X obj 535 292 + 2;
#X floatatom 486 325 0 0 0 0 - - -;
#X obj 486 258 metro 50;
#X floatatom 383 403 5 0 0 0 - - -;
#X obj 486 227 loadbang;
#X connect 0 0 14 0;
#X connect 1 0 0 1;
#X connect 2 0 1 0;
#X connect 3 0 4 0;
#X connect 4 0 5 0;
#X connect 5 0 6 0;
#X connect 6 0 7 0;
#X connect 7 2 0 0;
#X connect 9 0 10 0;
#X connect 10 0 9 0;
#X connect 12 0 21 0;
#X connect 13 0 2 0;
#X connect 13 0 15 0;
#X connect 14 0 12 0;
#X connect 15 0 16 0;
#X connect 16 0 14 1;
#X connect 17 0 21 0;
#X connect 19 0 20 0;
#X connect 20 0 18 0;
#X connect 21 0 22 0;
#X connect 22 0 19 0;
#X connect 23 0 24 0;
#X connect 23 0 25 0;
#X connect 24 0 23 1;
#X connect 25 0 20 2;
#X connect 25 0 20 3;
#X connect 25 0 20 1;
#X connect 26 0 23 0;
#X connect 27 0 18 1;
#X connect 28 0 26 0;
