#N canvas 464 260 724 506 10;
#X obj 52 24 osc~ 4000;
#X obj 53 318 dac~;
#X floatatom 53 -8 5 0 0 0 - - -;
#X obj 168 0 bng 15 250 50 0 empty empty empty 0 -6 0 8 -262144 -1
-1;
#X obj 157 109 t b b;
#X obj 311 413 sendOSC;
#X msg 227 314 send /Diablu/Mailman/SendPath c:/Mailman/pdsound.wav
0001e33c596a;
#X msg 447 338 connect 127.0.0.1 12000;
#X obj 150 73 delay 1000;
#X obj 430 422 mp3write~;
#X floatatom 430 16 0 40 16000 0 - - -;
#X msg 548 135 print;
#X obj 428 51 osc~ 440;
#X msg 546 166 mpeg 44100 128 1 4;
#X msg 548 113 truncate;
#X msg 548 90 append;
#X msg 547 64 stop;
#X msg 547 41 start;
#X text 605 87 Set recording mode to append ( which is the default
);
#X text 585 40 Start recording;
#X text 608 110 Set recording mode to truncate;
#X text 595 134 Print settings;
#X floatatom 493 250 10 0 0 0 - - -;
#X text 387 246 Bytes written;
#X text 585 63 Stop recording ( this also writes a tag );
#X msg 546 190 mpeg 44100 8 3 5;
#X obj 493 226 mp3write~;
#X obj 208 25 t b b;
#X msg 547 17 open c:/Mailman/pdsound.mp3;
#X connect 0 0 1 0;
#X connect 2 0 0 0;
#X connect 3 0 27 0;
#X connect 3 0 8 0;
#X connect 4 1 16 0;
#X connect 6 0 5 0;
#X connect 7 0 5 0;
#X connect 8 0 4 0;
#X connect 10 0 12 0;
#X connect 11 0 26 0;
#X connect 12 0 26 0;
#X connect 12 0 26 1;
#X connect 13 0 26 0;
#X connect 14 0 26 0;
#X connect 15 0 26 0;
#X connect 16 0 26 0;
#X connect 17 0 26 0;
#X connect 25 0 26 0;
#X connect 26 0 22 0;
#X connect 27 0 17 0;
#X connect 27 1 28 0;
#X connect 28 0 26 0;
