#N canvas 493 302 728 510 10;
#X obj 189 176 symbol2list;
#X obj 240 65 makefilename %c;
#X msg 240 44 92;
#X obj 41 8 dumpOSC 12001;
#X obj 107 41 OSCroute /Diablu;
#X obj 115 72 OSCroute /Mailman;
#X obj 477 7 cnv 15 220 70 empty empty empty 20 12 0 14 -195568 -66577
0;
#N canvas 0 22 466 316 gemwin 0;
#X obj 132 136 gemwin;
#X obj 67 89 outlet;
#X obj 67 10 inlet;
#X obj 67 41 route create;
#X msg 67 70 set destroy;
#X msg 182 68 set create;
#X msg 132 112 create \, 1;
#X msg 238 112 destroy;
#N canvas 87 154 247 179 Gem.init 0;
#X obj 118 46 loadbang;
#X msg 118 81 reset;
#X obj 118 113 outlet;
#X connect 0 0 1 0;
#X connect 1 0 2 0;
#X restore 289 80 pd Gem.init;
#X connect 2 0 3 0;
#X connect 3 0 4 0;
#X connect 3 0 6 0;
#X connect 3 1 5 0;
#X connect 3 1 7 0;
#X connect 4 0 1 0;
#X connect 5 0 1 0;
#X connect 6 0 0 0;
#X connect 7 0 0 0;
#X connect 8 0 0 0;
#X restore 507 92 pd gemwin;
#X msg 479 43 destroy;
#X text 481 7 Create window and render;
#X msg 207 243 open \$1;
#X obj 240 23 loadbang;
#X obj 208 213 list2symbol;
#X msg 349 42 /;
#X obj 349 69 symbol;
#X obj 341 235 gemhead;
#X obj 344 324 translateXYZ;
#X obj 437 425 rotateXYZ;
#X floatatom 435 386 5 0 0 0 - - -;
#X obj 343 267 pix_image;
#X obj 345 297 pix_texture;
#X obj 126 139 unpack s s s s;
#X obj 126 109 OSCroute /ReceivePath;
#X obj 367 466 cube 2;
#X obj 434 354 f;
#X obj 462 354 + 1;
#X obj 493 289 bng 15 250 50 0 empty empty empty 0 -6 0 8 -262144 -1
-1;
#X obj 493 320 metro 100;
#X obj 502 355 f;
#X obj 534 353 + 2;
#X floatatom 502 379 5 0 0 0 - - -;
#X obj 586 358 f;
#X floatatom 586 382 5 0 0 0 - - -;
#X obj 617 356 + 3;
#X connect 0 0 12 0;
#X connect 1 0 0 1;
#X connect 2 0 1 0;
#X connect 3 0 4 0;
#X connect 4 0 5 0;
#X connect 5 0 22 0;
#X connect 7 0 8 0;
#X connect 8 0 7 0;
#X connect 10 0 19 0;
#X connect 11 0 2 0;
#X connect 11 0 13 0;
#X connect 11 0 26 0;
#X connect 11 0 8 0;
#X connect 12 0 10 0;
#X connect 13 0 14 0;
#X connect 14 0 12 1;
#X connect 15 0 19 0;
#X connect 16 0 17 0;
#X connect 17 0 23 0;
#X connect 18 0 17 1;
#X connect 19 0 20 0;
#X connect 20 0 16 0;
#X connect 21 3 0 0;
#X connect 22 0 21 0;
#X connect 24 0 25 0;
#X connect 24 0 18 0;
#X connect 25 0 24 1;
#X connect 26 0 27 0;
#X connect 27 0 24 0;
#X connect 27 0 28 0;
#X connect 27 0 31 0;
#X connect 28 0 29 0;
#X connect 28 0 30 0;
#X connect 29 0 28 1;
#X connect 30 0 17 2;
#X connect 31 0 32 0;
#X connect 31 0 33 0;
#X connect 32 0 17 3;
#X connect 33 0 31 1;
