#N canvas 549 213 724 506 10;
#X obj 189 176 symbol2list;
#X obj 240 65 makefilename %c;
#X msg 240 44 92;
#X obj 41 8 dumpOSC 12001;
#X obj 107 41 OSCroute /Diablu;
#X obj 115 72 OSCroute /Mailman;
#X obj 126 109 OSCroute /Receive;
#X obj 477 7 cnv 15 220 70 empty empty empty 20 12 0 14 -195568 -66577
0;
#N canvas 0 22 462 312 gemwin 0;
#X obj 132 136 gemwin;
#X obj 67 89 outlet;
#X obj 67 10 inlet;
#X obj 67 41 route create;
#X msg 67 70 set destroy;
#X msg 182 68 set create;
#X msg 132 112 create \, 1;
#X msg 238 112 destroy;
#N canvas 87 154 247 179 Gem.init 0;
#X obj 118 46 loadbang;
#X msg 118 81 reset;
#X obj 118 113 outlet;
#X connect 0 0 1 0;
#X connect 1 0 2 0;
#X restore 289 80 pd Gem.init;
#X connect 2 0 3 0;
#X connect 3 0 4 0;
#X connect 3 0 6 0;
#X connect 3 1 5 0;
#X connect 3 1 7 0;
#X connect 4 0 1 0;
#X connect 5 0 1 0;
#X connect 6 0 0 0;
#X connect 7 0 0 0;
#X connect 8 0 0 0;
#X restore 482 51 pd gemwin;
#X msg 482 27 destroy;
#X text 481 7 Create window and render;
#X obj 240 23 loadbang;
#X obj 208 213 list2symbol;
#X msg 349 42 /;
#X obj 349 69 symbol;
#X obj 337 285 soundfiler;
#X obj 126 139 unpack s s s s;
#X obj 214 334 print;
#X obj 131 284 print osc;
#X obj 413 353 tabplay~ array1;
#X obj 376 327 bng 15 250 50 0 empty empty empty 0 -6 0 8 -262144 -1
-1;
#X obj 373 412 dac~;
#X msg 391 153 c:/mailman/Siemens mobile off1.wav;
#X msg 205 242 read \$1 array1;
#X obj 472 197 list2symbol;
#X connect 0 0 12 0;
#X connect 1 0 0 1;
#X connect 2 0 1 0;
#X connect 3 0 4 0;
#X connect 3 0 18 0;
#X connect 4 0 5 0;
#X connect 5 0 6 0;
#X connect 6 0 16 0;
#X connect 8 0 9 0;
#X connect 9 0 8 0;
#X connect 11 0 2 0;
#X connect 11 0 13 0;
#X connect 12 0 23 0;
#X connect 13 0 14 0;
#X connect 14 0 12 1;
#X connect 15 0 20 0;
#X connect 16 3 0 0;
#X connect 19 0 21 0;
#X connect 19 0 21 1;
#X connect 20 0 19 0;
#X connect 22 0 24 0;
#X connect 23 0 15 0;
#X connect 23 0 17 0;
#X connect 24 0 12 0;
