#N canvas 312 293 844 495 12;
#X obj 172 98 fiddle~;
#X floatatom 223 129 5 0 0 0 - - -;
#X obj 224 227 metro 1000;
#X floatatom 224 333 5 0 0 0 - - -;
#X obj 223 205 tgl 15 0 empty empty empty 0 -6 0 8 -262144 -1 -1 0
1;
#X obj 172 41 adc~;
#X obj 224 283 -;
#X obj 133 40 vsl 15 128 1 100 0 0 empty empty empty 0 -8 0 8 -262144
-1 -1 0 1;
#X floatatom 133 179 5 0 0 0 - - -;
#X obj 162 455 sendOSC;
#X floatatom 162 482 5 0 0 0 - - -;
#X msg 10 406 disconnect;
#X floatatom 216 484 5 0 0 0 - - -;
#X obj 224 253 f;
#X obj 224 308 i;
#X floatatom 246 98 5 0 0 0 - - -;
#X msg 9 374 connect 172.18.41.5 10000;
#X text 29 226 Send msgs to NXT every:;
#X text -8 178 Volume threshold:;
#X obj 308 99 fiddle~;
#X floatatom 359 130 5 0 0 0 - - -;
#X floatatom 382 99 5 0 0 0 - - -;
#X obj 314 285 -;
#X obj 314 255 f;
#X obj 314 311 i;
#X floatatom 314 339 5 0 0 0 - - -;
#X msg 293 409 send /motorForward 1 \$1;
#X msg 224 372 send /motorForward 0 \$1;
#X text 0 6 LegOSC: Audio controlled bot;
#X connect 0 3 1 0;
#X connect 1 0 13 1;
#X connect 2 0 13 0;
#X connect 2 0 23 0;
#X connect 3 0 27 0;
#X connect 4 0 2 0;
#X connect 5 0 0 0;
#X connect 5 1 19 0;
#X connect 6 0 14 0;
#X connect 7 0 8 0;
#X connect 8 0 6 1;
#X connect 9 0 10 0;
#X connect 9 1 12 0;
#X connect 11 0 9 0;
#X connect 13 0 6 0;
#X connect 14 0 3 0;
#X connect 15 0 1 0;
#X connect 16 0 9 0;
#X connect 19 3 20 0;
#X connect 20 0 23 1;
#X connect 21 0 20 0;
#X connect 22 0 24 0;
#X connect 23 0 22 0;
#X connect 24 0 25 0;
#X connect 25 0 26 0;
#X connect 26 0 9 0;
#X connect 27 0 9 0;
