#N canvas 136 24 1014 629 12;
#X text 394 1 author: Jorge Cardoso <jorgecardoso@ieee.org>;
#X obj 104 68 dumpOSC 10000;
#X obj 104 151 unpack f;
#X floatatom 104 184 5 0 0 0 - - -;
#X text 5 182 DeviceCount:;
#X symbolatom 176 222 20 0 0 0 - - -;
#X symbolatom 176 244 20 0 0 0 - - -;
#X text 58 222 DeviceIn UUID:;
#X text 58 244 DeviceIn Name:;
#X obj 104 106 OSCroute /DeviceCount /DeviceIn /DeviceOut /NameChanged
;
#X text 8 3 DiABlu Scout PureData Demo;
#X text 10 23 DiABlu Project: http://diablu.jorgecardoso.eu;
#X text 603 27 16 November 2007;
#X obj 176 193 unpack s s s s s;
#X symbolatom 176 267 20 0 0 0 - - -;
#X symbolatom 175 292 20 0 0 0 - - -;
#X symbolatom 175 316 20 0 0 0 - - -;
#X text 58 267 DeviceIn Major:;
#X text 57 292 DeviceIn Minor:;
#X text 6 316 DeviceIn Manufacturer:;
#X symbolatom 451 256 20 0 0 0 - - -;
#X symbolatom 451 278 20 0 0 0 - - -;
#X obj 451 227 unpack s s s s s;
#X symbolatom 451 301 20 0 0 0 - - -;
#X symbolatom 450 326 20 0 0 0 - - -;
#X symbolatom 450 350 20 0 0 0 - - -;
#X text 333 256 DeviceOut UUID:;
#X text 333 278 DeviceOut Name:;
#X text 333 301 DeviceOut Major:;
#X text 330 326 DeviceOut Minor:;
#X text 281 350 DeviceOut Manufacturer:;
#X obj 199 135 print DeviceIn;
#X symbolatom 635 381 20 0 0 0 - - -;
#X symbolatom 635 403 20 0 0 0 - - -;
#X obj 635 352 unpack s s s s s;
#X symbolatom 635 426 20 0 0 0 - - -;
#X symbolatom 634 451 20 0 0 0 - - -;
#X symbolatom 634 475 20 0 0 0 - - -;
#X text 498 380 NameChanged UUID:;
#X text 498 402 NameChanged Name:;
#X text 498 425 NameChanged Major:;
#X text 495 450 NameChanged Minor:;
#X text 446 474 NameChanged Manufacturer:;
#X obj 294 162 print DeviceOut;
#X obj 389 140 print NameChanged;
#X obj 549 168 print Other;
#X connect 1 0 9 0;
#X connect 2 0 3 0;
#X connect 9 0 2 0;
#X connect 9 1 13 0;
#X connect 9 1 31 0;
#X connect 9 2 22 0;
#X connect 9 2 43 0;
#X connect 9 3 34 0;
#X connect 9 3 44 0;
#X connect 9 4 45 0;
#X connect 13 0 5 0;
#X connect 13 1 6 0;
#X connect 13 2 14 0;
#X connect 13 3 15 0;
#X connect 13 4 16 0;
#X connect 22 0 20 0;
#X connect 22 1 21 0;
#X connect 22 2 23 0;
#X connect 22 3 24 0;
#X connect 22 4 25 0;
#X connect 34 0 32 0;
#X connect 34 1 33 0;
#X connect 34 2 35 0;
#X connect 34 3 36 0;
#X connect 34 4 37 0;
